{"title":"Sankarabharanam 2015 Telugu Movies PDVDRip XviD New +Sample ☻rDX","uid":12918589,"size":739644429,"categoryP":"video","categoryS":"movies","magnet":"?xt=urn:btih:8294df513ac797140bb92c5ac0801fcfe6f22571&amp;dn=Sankarabharanam+2015+Telugu+Movies+PDVDRip+XviD+New+%2BSample+%E2%98%BBrDX&amp;tr=udp%3A%2F%2Ftracker.leechers-paradise.org%3A6969&amp;tr=udp%3A%2F%2Fzer0day.ch%3A1337&amp;tr=udp%3A%2F%2Fopen.demonii.com%3A1337&amp;tr=udp%3A%2F%2Ftracker.coppersurfer.tk%3A6969&amp;tr=udp%3A%2F%2Fexodus.desync.com%3A6969","seeders":2,"leechers":0,"uploader":"basicssom","files":2,"time":1449388754,"description":"----------------------------------------------------------------\r\nSankarabharanam 2015 Telugu Movies PDVDRip XviD AAC New Source with Sample ~ ☻rDX☻\r\n\r\nSCREEN SHOTS &amp; POSTER:\r\n  \nhttp://doctorhosts.com/2015/12/Sankarabharanam/11.html  \nhttp://doctorhosts.com/2015/12/Sankarabharanam/1.html  \nhttp://doctorhosts.com/2015/12/Sankarabharanam/2.html  \nhttp://doctorhosts.com/2015/12/Sankarabharanam/3.html  \nhttp://doctorhosts.com/2015/12/Sankarabharanam/4.html  \nhttp://doctorhosts.com/2015/12/Sankarabharanam/5.html  \nhttp://doctorhosts.com/2015/12/Sankarabharanam/6.html  \nhttp://doctorhosts.com/2015/12/Sankarabharanam/7.html  \nhttp://doctorhosts.com/2015/12/Sankarabharanam/8.html  \nhttp://doctorhosts.com/2015/12/Sankarabharanam/9.html  \nhttp://doctorhosts.com/2015/12/Sankarabharanam/10.html\r\n\r\nFormat                                   : Matroska\r\nFormat version                           : Version 4 / Version 2\r\nFile size                                : 699 MiB\r\nDuration                                 : 2h 29mn\r\nOverall bit rate                         : 654 Kbps\r\nMovie name                               : Sankarabharanam 2015 Telugu Movies PDVDRip XviD AAC New Source ~ rDX ~\r\n\r\nVideo\r\nID                                       : 1\r\nFormat                                   : MPEG-4 Visual\r\nFormat profile                           : Advanced   \r\nFormat settings, BVOP                    : Yes\r\nFormat settings, QPel                    : No\r\nFormat settings, GMC                     : No warppoints\r\nFormat settings, Matrix                  : Default (H.263)\r\nCodec ID                                 : V_MS/VFW/FOURCC / XVID\r\nCodec ID/Hint                            : XviD\r\nDuration                                 : 2h 29mn\r\nBit rate                                 : 577 Kbps\r\nWidth                                    : 640 pixels\r\nHeight                                   : 272 pixels\r\nDisplay aspect ratio                     : 2.35:1\r\nFrame rate mode                          : Constant\r\nFrame rate                               : 23.976 fps\r\nColor space                              : YUV\r\nChroma subsampling                       : 4:2:0\r\nBit depth                                : 8 bits\r\nScan type                                : Progressive\r\nCompression mode                         : Lossy\r\nBits/(Pixel*Frame)                       : 0.138\r\nStream size                              : 617 MiB (88%)\r\nTitle                                    : ~ rDX ~\r\nWriting library                          : XviD 1.2.1 (UTC 2008-12-04)\r\nDefault                                  : Yes\r\nForced                                   : No\r\n\r\nAudio\r\nID                                       : 2\r\nFormat                                   : MPEG Audio\r\nFormat version                           : Version 2\r\nFormat profile                           : Layer 3\r\nMode                                     : Joint stereo\r\nMode extension                           : MS Stereo\r\nCodec ID                                 : A_MPEG/L3\r\nCodec ID/Hint                            : MP3\r\nDuration                                 : 2h 29mn\r\nBit rate mode                            : Constant\r\nBit rate                                 : 64.0 Kbps\r\nChannel(s)                               : 2 channels\r\nSampling rate                            : 24.0 KHz\r\nCompression mode                         : Lossy\r\nStream size                              : 68.5 MiB (10%)\r\nTitle                                    : ~ rDX ~\r\nWriting library                          : LAME3.99r\r\nEncoding settings                        : -m j -V 4 -q 2 -lowpass 11 -b 64\r\nDefault                                  : Yes\r\nForced                                   : No\r\n\r\nIMDB                                      \nhttp://www.imdb.com/title/tt5159422/","torrent":{"xt":"urn:btih:8294df513ac797140bb92c5ac0801fcfe6f22571","amp;dn":"Sankarabharanam+2015+Telugu+Movies+PDVDRip+XviD+New+%2BSample+%E2%98%BBrDX","amp;tr":["udp%3A%2F%2Ftracker.leechers-paradise.org%3A6969","udp%3A%2F%2Fzer0day.ch%3A1337","udp%3A%2F%2Fopen.demonii.com%3A1337","udp%3A%2F%2Ftracker.coppersurfer.tk%3A6969","udp%3A%2F%2Fexodus.desync.com%3A6969"],"infoHash":"8294df513ac797140bb92c5ac0801fcfe6f22571","infoHashBuffer":{"type":"Buffer","data":[130,148,223,81,58,199,151,20,11,185,44,90,192,128,31,207,230,242,37,113]},"announce":[],"urlList":[]}}